<?xml version="1.0" encoding="UTF-8"?>
<!DOCTYPE svg PUBLIC "-//W3C//DTD SVG 1.1//EN" "http://www.w3.org/Graphics/SVG/1.1/DTD/svg11.dtd">
<!-- Creator: CorelDRAW -->
<svg xmlns="http://www.w3.org/2000/svg" xml:space="preserve" width="43.3493mm" height="43.3493mm" version="1.1" style="shape-rendering:geometricPrecision; text-rendering:geometricPrecision; image-rendering:optimizeQuality; fill-rule:evenodd; clip-rule:evenodd"
viewBox="0 0 934.12 934.12"
 xmlns:xlink="http://www.w3.org/1999/xlink"
 xmlns:xodm="http://www.corel.com/coreldraw/odm/2003">
 <defs>
  <style type="text/css">
   <![CDATA[
    .fil0 {fill:#0B3B4B}
    .fil2 {fill:#1E8BB0}
    .fil1 {fill:white}
   ]]>
  </style>
 </defs>
 <g id="Camada_x0020_1">
  <metadata id="CorelCorpID_0Corel-Layer"/>
  <g id="_3068614343360">
   <rect class="fil0" x="-0" y="-0" width="934.12" height="934.12" rx="265.77" ry="265.77"/>
   <g>
    <path class="fil1" d="M378.28 789.41l-257.6 -446.18c-2.11,-3.66 -2.11,-7.85 0,-11.5 2.11,-3.66 5.74,-5.75 9.96,-5.75l62.79 0c4.22,0 7.85,2.09 9.96,5.75l157.72 273.17c5.28,9.15 14.35,14.38 24.91,14.38 10.56,0 19.63,-5.23 24.91,-14.38l138.89 -240.56c14.09,-24.4 38.27,-38.36 66.44,-38.36l109.31 0c4.22,0 7.85,2.09 9.96,5.75 2.11,3.66 2.11,7.84 0,11.5l-257.59 446.18c-10.56,18.3 -28.7,28.77 -49.83,28.77 -21.13,0 -39.27,-10.47 -49.83,-28.77z"/>
    <path class="fil2" d="M375.33 497.18l-28.42 -49.23c-2.11,-3.66 -2.11,-7.85 0,-11.51l119.39 -206.78c14.09,-24.4 38.27,-38.37 66.45,-38.37l277.24 0c2.82,0 5.24,1.4 6.64,3.84 1.41,2.44 1.41,5.23 0,7.67l-33.64 58.27c-2.11,3.66 -5.74,5.75 -9.96,5.75l-200.47 0c-28.17,0 -52.36,13.97 -66.44,38.37l-110.85 192c-2.11,3.66 -5.74,5.75 -9.96,5.75 -4.22,0 -7.85,-2.09 -9.96,-5.75z"/>
    <circle class="fil1" cx="314.32" cy="258.63" r="67.34"/>
   </g>
  </g>
 </g>
</svg>
