<svg xmlns="http://www.w3.org/2000/svg" width="162.667" height="117.825" viewBox="0 0 122.001 88.369"><path d="M115.822 87.178c-7.57 0-109.906-.22-109.906-.233-.042-.1-12.991-15.97 3.314-32.563 8.08-8.222-7.419-18.874 0-28.02 8.252-10.17 16.447-10.019 24.047-9.867 4.106.082 8.038.164 11.713-1.382 1.85-.777 3.708-2.029 5.567-3.95a20.707 20.707 0 0 1 3.992-3.208 22.815 22.815 0 0 1 2.283-1.239 24.314 24.314 0 0 1 1.613-.69c.868-.336 1.76-.625 2.672-.87a30.241 30.241 0 0 1 3.985-.782c.593-.077 1.19-.137 1.792-.182 11.706-.88 24.878 4.07 31.676 11.304 1.369 1.456 7.592 8.994 2.687 19.354-3.098 6.541 9.877 12.788 14.49 20.258 11.722 18.99.182 31.822.075 32.07" fill="#ebf3fa"/><path d="m82.447 51.02-3.342-5.01-2.005-7.489-.016-.06H74.07L68.63 30.31c.51.09 1.2.528 2.079 1.121.322.217.565.307.757.307.716 0 .718-1.246 1.41-1.783.164-.127.376-.175.613-.175.407 0 .889.144 1.33.288.442.144.843.289 1.09.289.137 0 .226-.044.249-.157.127-.638-.804-.977-1.611-1.217-.808-.24-1.112-.562-.372-1.873.74-1.31-.131-.942-.669-2.507-.244-.711-.705-1.066-1.135-1.24a14.766 14.766 0 0 0-3.323 1.102 14.937 14.937 0 0 0 6.307-1.407 14.851 14.851 0 0 1 6.124 1.323 14.793 14.793 0 0 1 6.031 4.98 14.934 14.934 0 0 1 2.602 6.66c.133 1.02.16 2.061.076 3.107a.886.886 0 0 0-.35-.217s.234-.389-1.63-.909c-1.865-.52-1.069-2.6-2.76-3.056a3.148 3.148 0 0 0-.824-.121c-.387 0-.672.095-.944.19-.27.094-.53.19-.866.19a2.18 2.18 0 0 1-.586-.087 4.105 4.105 0 0 0-1.074-.16c-.873 0-1.49.393-1.295 1.352.27 1.322-1.27.999-.973 2.568.299 1.57 2.08 1.665 3.545 1.763 1.465.098-.815 1.915.159 3.256.973 1.341 2.904 1.569 1.865 2.257-1.04.689-3.015 2.103-1.525 3.434.317.284.693.423 1.107.436-.51.366-1.041.699-1.59.997zm4.63-16.904c.658 0 .987.48 1.34.958.354.479.731.958 1.49.958.065 0 .133-.004.206-.011a14.849 14.849 0 0 0-2.602-6.66v-.001a1.088 1.088 0 0 0-.278-.037h-.016s-.603-.333-1.206-.333c-.316 0-.632.092-.86.37-.664.813-2.08-.07-2.596 1.058-.516 1.129 2.02.524 2.773 1.64.71 1.053.17 2.075 1.386 2.075.072 0 .15-.004.236-.011.043-.004.085-.006.126-.006zm-10.939-9.327c-.594 0-.91.56-.576 1.402.373.942.437 2.409 1.069 2.409a.674.674 0 0 0 .35-.12c.852-.53 1.036-1.125 1.616-1.125.08 0 .168.012.267.037 0 0 1.205-.853.072-1.647-1.134-.793-1.27-.343-2.209-.802a1.357 1.357 0 0 0-.589-.154" fill="#dbe8fe"/><path d="M71.467 31.737c-.192 0-.435-.09-.757-.307-.88-.593-1.57-1.03-2.079-1.12L66 26.365a14.937 14.937 0 0 1 6.372-3.004c.43.174.891.529 1.135 1.24.538 1.565 1.408 1.196.67 2.507-.741 1.31-.437 1.632.371 1.873.807.24 1.738.579 1.61 1.217-.022.113-.11.157-.247.157-.248 0-.649-.145-1.09-.289-.442-.144-.924-.288-1.33-.288-.238 0-.45.049-.614.175-.692.537-.694 1.783-1.41 1.783M84.038 50.023a1.694 1.694 0 0 1-1.107-.436c-1.49-1.331.485-2.745 1.525-3.434 1.04-.688-.892-.916-1.865-2.257-.974-1.341 1.306-3.158-.159-3.256-1.464-.098-3.246-.193-3.545-1.763-.298-1.57 1.243-1.246.973-2.568-.195-.959.422-1.352 1.295-1.352.332 0 .699.056 1.074.16.223.062.415.086.586.086.337 0 .595-.095.867-.19.271-.094.556-.19.943-.19.232 0 .5.035.825.122 1.69.457.894 2.537 2.759 3.056 1.864.52 1.63.909 1.63.909.132.044.25.117.35.217a14.874 14.874 0 0 1-.852 3.897 14.787 14.787 0 0 1-5.3 6.999M89.907 36.032c-.759 0-1.136-.48-1.49-.958-.353-.479-.682-.958-1.34-.958-.041 0-.084.002-.127.006a2.738 2.738 0 0 1-.236.01c-1.215 0-.676-1.02-1.386-2.074-.753-1.116-3.289-.511-2.773-1.64.515-1.128 1.932-.245 2.595-1.057.229-.28.545-.37.86-.37.604 0 1.207.332 1.207.332h.016c.091 0 .184.012.278.037a14.934 14.934 0 0 1 2.602 6.66c-.073.008-.14.012-.206.012M76.63 28.6c-.63 0-.695-1.467-1.068-2.409-.334-.842-.018-1.402.576-1.402.175 0 .375.049.589.154.938.459 1.075.01 2.209.802 1.133.794-.072 1.647-.072 1.647a1.098 1.098 0 0 0-.267-.037c-.58 0-.764.594-1.616 1.124a.674.674 0 0 1-.35.12" fill="#bacdfe"/><path d="M9.296 86.988h5.19c.278-.236-.193-.772-.684-.808-.214-.016-.484.029-.793.093-.071-.948-.479-5.212-2.016-5.04-1.728.192 0 1.877.489 2.875.362.74.743 1.8.918 2.3-.14.031-.286.06-.434.088-.23-.703-1.082-3.07-2.165-2.931-1.273.161-.761 1.11.14 1.673a33.978 33.978 0 0 1 1.861 1.286c-.327.054-.669.09-1.015.082-.889-.021-1.323.24-1.491.382M91.886 86.988h-4.82c-.258-.22.18-.717.636-.75.198-.016.449.026.736.087.066-.882.445-4.842 1.872-4.683 1.605.178 0 1.744-.454 2.672-.336.686-.69 1.67-.853 2.136.132.028.266.055.404.08.212-.653 1.004-2.85 2.011-2.721 1.182.15.707 1.03-.13 1.553-.616.385-1.37.931-1.73 1.196.305.05.622.082.944.075.825-.02 1.229.224 1.384.355" fill="#a8d29f"/><path d="M95.33 55.39s.114-1.14-.483-1.101c-.597.039-.755.312-.688.532.067.219.646.945.646.945z" fill="#ffb27d"/><path d="M104.628 57.677s-.662.776-2.082 1.672a15.658 15.658 0 0 1-2.37 1.215 6.068 6.068 0 0 1-.287.11c-.852.307-2.417.742-3.388.782a3.42 3.42 0 0 1-.24 0c-1.477-.06-1.657-5.794-1.657-5.794s.164-.573.924-.429c0 0 1.151 3.239 1.565 3.503.367.235 2.476-2.963 4.291-3.186 1.222-.15 3.244 2.127 3.244 2.127" fill="#739af0"/><path d="M100.657 85.64s.11 1.261-.156 1.393l-3.415-.007s0-.394.548-.482c.549-.088 1.512-.408 1.676-1.124.163-.715 1.347.22 1.347.22" fill="#1c3154"/><path d="M98.151 70.362c.017.826.057 1.677.134 2.442.369 3.63.498 8.017.552 8.863.091 1.468.38 3.814.38 3.814s.578.546 1.698.285c0 0 .929-3.378 1.137-6.935l.01-.176.075-1.588c.17-3.883.356-9.653.356-9.653l-4.285-1.006s-.1 1.897-.057 3.954" fill="#2a4e96"/><path d="M98.151 70.362a651.469 651.469 0 0 0 3.986 6.705c.17-3.883.356-9.653.356-9.653l-4.285-1.006s-.1 1.897-.057 3.954" fill="#233862"/><path d="M99.889 60.673c-.852.308-2.417.743-3.388.783.147-.028 1.228-.242 1.628-.725.43-.518 1.153-1.928 1.727-1.353.27.271.192.806.033 1.295" fill="#6385db"/><path d="M107.089 69.752s.266 1.043.222 1.274c-.044.232-.303 1.017-.465 1.212-.162.195-.169-.847-.276-1.01-.108-.164-.05.389-.136.434-.086.045-.23-.419-.295-.583-.063-.164.231-.736.258-1.146.027-.41.692-.181.692-.181" fill="#ffb27d"/><path d="M109.164 84.205s.608.554.49.948c-.119.395-.667.657-.741 1.139-.075.481-.371.744-.639.744h-1.271s-.196-.338.278-.44c.474-.103.653-.67.624-1.194a9.37 9.37 0 0 1 .043-1.227l1.008-.233z" fill="#1c3154"/><path d="M98.883 67.502s4.01 8.583 6.146 12.348c2.134 3.766 2.801 4.817 2.801 4.817s1.224-.481 1.334-.81c0 0-.817-7.27-2.246-9.042-.807-1.002-1.756-4.007-1.8-5.058-.045-1.05-.982-3.559-.982-3.559z" fill="#2a4e96"/><path d="M98.136 67.056s1.305 1.405 3.525 1.83c.974.186 2.951.366 3.442-.327.115-.163.116-.404.09-.78-.066-.979-.311-2.87.799-6.67.103-.354.173-.693.213-1.017.243-1.944.218-3.412-1.47-4.196-2.528-1.175-3.566-.209-3.566-.209s-1.344.629-1.957 2.46c-1.229 3.662-1.076 8.909-1.076 8.909" fill="#739af0"/><path d="M103.218 55.573a1.876 1.876 0 0 1-1.888.124c-.055-.028-.049-.405-.035-.776.013-.364.047-.72.047-.72l.9-.591.858-.563c-.102 1.936.31 2.389.118 2.526" fill="#ffb27d"/><path d="M102.95 53.846s-.584.876-1.655 1.075c.013-.364.053-.765.053-.765l.894-.546z" fill="#ed985f"/><path d="M100.537 53.972s2.176.812 2.66-.529c.484-1.34 1.091-2.138-.277-2.713-1.369-.575-1.825-.16-2.098.247-.271.409-.838 2.75-.285 2.995" fill="#ffb27d"/><path d="M104.554 50.88c.025-.02.075-.029.181-.014 0 0-.074-.068-.184-.093.006-.15-.02-.424-.258-.536 0 0 .12.098.106.257-.23-.356-.81-.696-2.56-.9-2.307-.27-1.846 1.332-1.586 1.564.26.231 1.094-.098 1.633.054.539.152.487.964.652 1.11.163.144.13-.062.403-.126s.215.357.089.614.15.682.15.682l.422-.307c.423-.307 1.067-1.835.976-2.205a2.809 2.809 0 0 1-.024-.1" fill="#2c3a64"/><path d="M105.193 67.779c-.066-.979-.311-2.87.799-6.67.103-.354.173-.693.213-1.017-.825-.272-2.33.334-2.33.334s-.352 5.024 1.318 7.353" fill="#6385db"/><path d="M105.19 56.15s1.015.37 1.664 3.058c.428 1.777 1.216 4.389 1.304 5.21.09.82-.9 5.625-.9 5.625s-.14.102-.481.033c-.329-.065-.48-.286-.48-.286s-.237-3.203-.176-4.715c.026-.628-2.909-4.6-4.491-5.113-.623-.2 3.56-3.812 3.56-3.812" fill="#739af0"/><path d="M90.984 52.67s2.935-.085 6.323.54l.354-.893.388-.977s-3.401-1.464-5.445-3.503z" fill="#aec3ff"/><path d="m92.65 47.79-1.685 4.975a.449.449 0 0 1-.296-.58l1.483-4.18a.37.37 0 0 1 .498-.215M94.26 56.372a.61.61 0 0 0 .714-.477l.58-2.904a.608.608 0 0 0-.477-.714.61.61 0 0 0-.714.477l-.581 2.903a.61.61 0 0 0 .477.715" fill="#f99746"/><path d="M90.984 52.67s2.935-.085 6.323.54l.354-.893c-3.183-.65-6.677.352-6.677.352" fill="#739af0"/><path d="m96.37 53.03.917.161c-.014 0 .853.169 1.137-.599a.605.605 0 0 0 .053-.166c.222-.956-.304-1.132-.304-1.132l-1.181-.46-.374 1.327v.005z" fill="#f99746"/><path d="m96.37 53.03.917.161c-.014 0 .853.169 1.137-.599-.52-.377-1.806-.431-1.806-.431v.005z" fill="#ed7d2b"/><path d="M94.338 53.56s.448.18.365.377c-.082.197-.653.469-.743.313-.09-.156.095-.856.378-.69M95.338 55.21s.085-.458.09-.67c.005-.21.03-.382-.02-.388-.05-.006-.085.033-.106.1-.02.068-.099.489-.099.489l.04.406z" fill="#ffb27d"/><path d="M50.953 54.911 48.411 85.14s-.266 1.833 1.097 1.836c2.24.006 11.154 0 11.154 0s-1.687-.382-1.666-1.24c.024-1.011 2.972-31.111 2.972-31.111z" fill="#7599ea"/><path d="M61.501 86.44c-.44.001-9.07.015-11.252-.013-.951-.011-1.118-.845-1.126-1.385-.004-.258.029-.45.029-.45l.066-.785.169-2.003.148-1.77.191-2.273.162-1.918 1.806-21.48 11.014-.286s-1.241 12.596-2.119 21.766a1332.241 1332.241 0 0 0-.358 3.77 1578.902 1578.902 0 0 0-.315 3.399c-.113 1.236-.178 2.026-.179 2.176 0 .087.007.168.021.245.181.963 1.578 1.007 1.743 1.007" fill="#90aff4"/><path d="m24.205 38.462 6.193 24.874.848 3.407L34.13 78.33h53.585L77.084 38.462z" fill="#aec3ff"/><path d="m24.205 38.462-.858.286 9.642 40.446 1.14-.865z" fill="#90aff4"/><path d="M32.989 79.194h53.255l1.47-.865H34.13z" fill="#7599ea"/><path d="M51.69 86.988h11.531v-.548h-11.53z" fill="#aec3ff"/><path d="m60.29 79.194-.06.42-10.843 2.19.148-1.77.071-.84z" fill="#5888dd"/><path d="M61.501 86.44h-9.296c-.83-.003-1.521-.007-1.956-.013-.951-.011-1.118-.845-1.126-1.385l10.793-2.03c-.113 1.236-.178 2.026-.179 2.176v.008c0 .085.008.163.021.237.181.963 1.578 1.007 1.743 1.007" fill="#7a9feb"/><path d="M56.222 86.445c-1.401 0-2.848-.002-4.017-.005H61.5c-.23 0-2.677.005-5.279.005" fill="#8cabf1"/><path d="M24.205 38.462h52.879l8.58 32.04H32.181z" fill="#aec3ff"/><path d="M83.17 69.114H33.658l-1.769-7.048-.684-2.727-.28-1.112-1.817-7.243-.095-.377-.96-3.83-.431-1.712-.367-1.461-.86-3.426h48.797l.945 3.426.403 1.461.472 1.713 3.11 11.286.264.956.123.444 2.148 7.792z" fill="#739af0"/><path d="M76.136 43.604h-48.88l-.86-3.426h48.797z" fill="#607cf4"/><path d="M28.414 41.726c-.059-.236.085-.428.322-.428.236 0 .476.191.534.428.06.237-.084.429-.321.429a.585.585 0 0 1-.535-.429M29.837 41.726c-.06-.236.085-.428.322-.428.236 0 .476.191.535.428.058.237-.085.429-.322.429a.585.585 0 0 1-.535-.429M31.37 41.726c-.06-.236.084-.428.32-.428.237 0 .477.191.536.428.059.237-.085.429-.322.429a.585.585 0 0 1-.535-.429" fill="#e9f3fe"/><path d="M65.485 20.261c2.002-2.349 5.087-7.069 7.165-9.486a.766.766 0 0 0-.584-1.265h-3.78l3.565-8.063c.153-.344-.316-.619-.542-.317l-8.622 11.54a.477.477 0 0 0 .441.76l4.28-.528-2.547 6.995c-.14.385.359.677.624.364" fill="#f77d48"/><path d="M47.687 34.572c.45-2.309.734-6.598 1.21-8.98a.584.584 0 0 0-.861-.622l-2.511 1.414-.648-6.69c-.028-.285-.441-.291-.479-.007l-1.41 10.89a.364.364 0 0 0 .577.34l2.646-1.952.925 5.599c.05.308.491.315.55.008" fill="#aec3ff"/><path d="m85.332 69.796-43.02 3.624c-3.267.276-5.631-3.054-4.294-6.048l18.227-40.79c1.382-3.095 5.633-3.453 7.514-.633l24.794 37.166c1.82 2.727.046 6.406-3.22 6.681" fill="#e6efff"/><path d="M59.952 25.675a2.638 2.638 0 0 0-2.216 1.573L39.509 68.039a2.649 2.649 0 0 0 .261 2.638 2.65 2.65 0 0 0 2.404 1.117l43.02-3.625a2.648 2.648 0 0 0 2.184-1.503c.416-.861.347-1.85-.183-2.645L62.4 26.855a2.64 2.64 0 0 0-2.448-1.18zm25.517 45.748-43.02 3.625a5.886 5.886 0 0 1-5.342-2.48 5.886 5.886 0 0 1-.58-5.861l18.227-40.791a5.863 5.863 0 0 1 4.924-3.496 5.864 5.864 0 0 1 5.44 2.622L89.911 62.21a5.888 5.888 0 0 1 .41 5.875 5.888 5.888 0 0 1-4.853 3.34" fill="#f77d48"/><path d="m65.595 55.772-6.197.522-2.662-21.1 7.953-.67zm-6.651 7.783a3.945 3.945 0 0 1 .167-1.562 3.61 3.61 0 0 1 .736-1.293c.333-.375.744-.68 1.236-.916a4.827 4.827 0 0 1 1.693-.435 4.924 4.924 0 0 1 1.754.145c.533.15.995.381 1.385.695.39.314.704.698.942 1.152.238.453.38.957.427 1.512a3.848 3.848 0 0 1-.169 1.55 3.64 3.64 0 0 1-.737 1.28 3.828 3.828 0 0 1-1.25.917c-.5.237-1.068.382-1.704.436-.638.053-1.218.005-1.742-.145a3.851 3.851 0 0 1-1.372-.697 3.62 3.62 0 0 1-.941-1.139 3.854 3.854 0 0 1-.425-1.5" fill="#f77d48"/><path d="M32.23 57.066s.135-.303.222-.447c.087-.143.46-.564.524-.469.063.095.317.737.182.916-.134.18.01.492-.662.682z" fill="#ffb27d"/><path d="M24.768 55.15s3.437 2.87 4.777 2.604c1.048-.208 2.705-.733 2.705-.733s.437.416.314.915c0 0-2.111 1.986-3.615 1.998-2.35.02-3.46-1.164-3.46-1.164z" fill="#ed7d2b"/><path d="M18.74 85.413s.1 1.61.411 1.632c.042.004 1.58.004 1.58.004l1.963-.012s-.013-.474-.587-.573c-.573-.1-1.534-.504-1.882-1.262-.365-.798-1.485.21-1.485.21" fill="#113c68"/><path d="M18.627 85.524s.597.2 1.063.2c.52 0 .992-.142.992-.142s.113-1.086.73-3.48a78.808 78.808 0 0 1 1.447-4.874c1.82-5.54 2.374-8.782 2.425-9.09l.004-.023-.006-.003-5.599-2.458s.692 7.637-.19 10.568c-.124.41-.23.887-.321 1.404-.558 3.184-.545 7.898-.545 7.898" fill="#2a4e96"/><path d="M21.413 82.102a78.808 78.808 0 0 1 1.445-4.874c1.822-5.54 2.375-8.782 2.426-9.09a.37.37 0 0 0-.002-.026l-5.599-2.458s.692 7.637-.19 10.568c-.124.41 1.92 5.88 1.92 5.88" fill="#233862"/><path d="M23.113 85.413s.1 1.61.411 1.632c.042.004 1.58.004 1.58.004l1.963-.012s-.013-.474-.587-.573c-.574-.1-1.534-.504-1.882-1.262-.365-.798-1.485.21-1.485.21" fill="#15447c"/><path d="M26.287 65.833s.073 4.95-.783 11.026c-.857 6.076-.566 8.655-.566 8.655s-.588.19-.826.21c-.605.05-1.225-.142-1.225-.142s-1.226-6.078-.874-9.12c.351-3.04-1.678-10.436-1.678-10.436z" fill="#2a4e96"/><path d="m22.317 54.253 1.093.716.996-.281c.182-.26.23-.76.232-1.194.003-.43-.038-.794-.038-.794l-1.475-.65-.55-.243c.002.008.043.452.049.516.102 1.15-.307 1.93-.307 1.93" fill="#ffb27d"/><path d="M26.313 67.21c-1.36 1.313-6.509 1.092-6.826-.355-.317-1.447.346-12.318 2.67-13.001.482-.142 3.06.691 3.06.691s.404 1.059.67 2.406c.05.262.201 3.04.314 5.639.052 1.215.096 2.392.119 3.254.02.807.022 1.337-.008 1.366" fill="#f99746"/><path d="M22.734 52.343c.3.506 1.348.949 1.904 1.151.003-.43-.038-.794-.038-.794l-1.475-.65c-.326-.006-.524.067-.391.293" fill="#fca56b"/><path d="M25.156 52.61s-2.376.741-2.815-.745c-.438-1.487-1.04-2.392.458-2.929 1.498-.536 1.961-.056 2.229.405.267.46.734 3.038.128 3.27" fill="#ffb27d"/><path d="M24.934 49.198s-.151 1.73-.51 1.654c-.357-.075-.75-.235-.698.286.052.521-.348 1.416-.864 1.413-1.106-.004-2.308-2.843-2.006-3.381.874-1.554 5.341-1.867 4.078.028" fill="#163560"/><path d="M24.585 53.891c-.03-.012-1.769-.792-1.972-.725-.203.067-.457.688-.457.688l3.06.692s-.24-.49-.631-.655" fill="#ed7d2b"/><path d="m35.404 62.31-9.742 9.173c-.19.18-.431.237-.535.127l-.329-.35c-.103-.109-.031-.346.16-.526l9.742-9.172c.19-.18.431-.237.535-.127l.328.349c.104.11.032.346-.159.527" fill="#1f4d84"/><path d="m29.937 67.458-4.275 4.025c-.19.18-.431.237-.535.127l-.329-.35c-.103-.109-.031-.346.16-.526l4.275-4.025z" fill="#739af0"/><path d="M35.348 51.8a7.025 7.025 0 0 1 9.94-.302 7.032 7.032 0 0 1-3.192 11.964A7.033 7.033 0 0 1 35.348 51.8zm-2.183 7.047a7.636 7.636 0 1 0 14.608-4.457 7.636 7.636 0 0 0-14.608 4.457" fill="#1f4d84"/><path d="M38.078 63.235a6.962 6.962 0 0 1-2.428-1.493 7.033 7.033 0 0 1 8.152-11.317z" fill="#93b5f5"/><path d="m41.503 63.576 4.839-10.83.057.09c.627.979.987 2.083 1.08 3.206a7.016 7.016 0 0 1-1.888 5.397 7.002 7.002 0 0 1-4.088 2.137" fill="#ccdffc"/><path d="M40.468 63.653a7.09 7.09 0 0 1-2.39-.418l5.724-12.81a6.927 6.927 0 0 1 1.486 1.073c.408.382.76.802 1.054 1.249l-4.839 10.83c-.343.05-.689.076-1.035.076" fill="#d5a6a1"/><path d="M40.468 63.653a7.103 7.103 0 0 1 1.628-.19 7.011 7.011 0 0 1-1.627.19zm-3.833-1.137a7.033 7.033 0 1 1 0 0zm9.764-9.68-.057-.09a7.004 7.004 0 0 0-1.053-1.248 7.042 7.042 0 0 0 0-.001 7.05 7.05 0 0 1 1.11 1.338" fill="#698ebf"/><path d="M26.32 65.844c-5.368-3.825-4.922-8.93-4.922-8.93 1.962 1.107 3.91 3.553 4.803 5.676.052 1.215.096 2.392.119 3.254" fill="#ed7d2b"/><path d="M31.618 64.102c.379-.088.633-.374.686-.424 0 0 .16.011-.027.355-.016.03-.05.104-.077.156a.033.033 0 0 0 .028.048c.219.016.438-.07.86.018.057.012.074.15.072.21-.004.1.003.213-.113.367-.068.09-.257.186-.678.355-.161.065-.62.016-1.05-.132l-.344-.159.107-.639.086.019c.137.028.307-.14.45-.174" fill="#ffb27d"/><path d="M23.064 54.546s-4.823.918 1.42 7.903c.998 1.117 6.391 2.571 6.391 2.571s.548-.465.272-.842c0 0-3.714-2.697-4.531-3.125-.368-.194-1.427-4.305-2.026-5.295-.6-.99-1.526-1.212-1.526-1.212" fill="#f99746"/><path d="M32.36 57.15s.158-.3.189-.46c.03-.159.23-.622.311-.704.033-.033.14.01.154.15a.82.82 0 0 1-.078.305c-.086.216-.072.509-.102.606-.075.243-.474.104-.474.104M34.28 45.184a.291.291 0 0 0-.052.311v.002c.075.208.323.439.611.67.037.03.07.057.098.082.008.007.016.013.022.02l.017.015c.269.248.168.305.65.807.55.573.929.583 1.037.531.091-.044-.094-.348-.3-.69l-.03-.049c-.026-.046-.054-.092-.081-.137-.24-.41-.178-.604-.121-1.215.046-.497.773-2.774.773-2.774l-1.054-.182s-.318 1.814-.668 2.092c-.187.15-.396.151-.576.261a1.393 1.393 0 0 0-.326.255" fill="#ffb27d"/><path d="M34.28 45.184a.291.291 0 0 0-.052.311v.002c.092.207.334.438.613.668.036.03.068.058.096.084.008.007.016.013.022.02l.017.015c.269.248.168.305.65.807.55.573.929.583 1.037.531.091-.044-.094-.348-.3-.69a2.345 2.345 0 0 1-.98-.722c-.32-.408-.536-.927-.753-1.246l-.062-.011a1.393 1.393 0 0 0-.288.23" fill="#233862"/><path d="M42.782 44.529c.065.325.53.27 1.047.145.519-.127.396.024 1.133-.058.738-.081.961-.356.984-.466.02-.097-.344-.132-.735-.177-.05-.005-.099-.012-.148-.018-.442-.055-.765-.34-1.166-.574-.38-.222-.946-1.125-.946-1.125l-1.011.08s.53.806.735 1.157c.12.206.115.48.1.69-.008.114-.016.23.007.346" fill="#ffb27d"/><path d="M43.83 44.674c.518-.127.395.024 1.132-.058.738-.081.961-.356.984-.466.02-.097-.344-.132-.735-.177l-.004.008s-.443.313-1.057.328c-.5.012-1.03-.132-1.375-.127-.008.115-.016.232.007.346.065.326.53.272 1.047.146M38.907 38.059l-.946 2.544-1.236 3.322s-.335.032-.656-.06c-.296-.085-.634-.309-.634-.309s.344-3.567.984-5.615c.164-.526.348-.951.55-1.19.992-1.172 1.938 1.308 1.938 1.308" fill="#233862"/><path d="M37.947 34.017c-.538-.174-1.943-.004-3.466.271a1.033 1.033 0 0 1-1.067-.482l-3.835-.3s-1.266 2.805-.574 4.593c.102.263.326.427.67.432l3.058.005c1.907 0 4.037-1.31 4.312-1.365.45-.09.63.812 1.08 1.759.451.946 4.236 4.193 4.236 4.193s.582.006.823-.084c.258-.097.352-.223.352-.223s-4.192-8.348-5.589-8.8" fill="#2a4e96"/><path d="M33.01 22.547a1.36 1.36 0 0 0-.732-.191 2.05 2.05 0 0 1-.354-.022c-1.463-.215-2.345 1.91-2.397 2.553-.095 1.179-.719 1.358-1.597 2.097-1.761 1.48-1.245 3.2-.283 3.84.578.384 1.596 0 1.596 0 .014.01 2.785-1.547 4.15-2.298 2.047-.29.44-5.49-.383-5.98" fill="#233862"/><path d="M32.249 27.886c.006.003-.672.235-1.125.034-.427-.189-.75-.89-.743-.89.194-.01.407-.18.572-1.292l.082.03 1.389.5s-.101.446-.166.87c-.055.356-.085.697-.01.747" fill="#ffb27d"/><path d="M32.424 26.268s-.056.24-.137.69c-.798-.144-1.14-.759-1.252-1.19z" fill="#ed975d"/><path d="M32.63 26.71s-1.9-.255-1.722-1.436c.177-1.18.051-2.009 1.272-1.896 1.22.114 1.388.6 1.424 1.008.037.409-.475 2.36-.974 2.325" fill="#ffb27d"/><path d="M33.535 23.739s-1.216 1.048-2.044 1.132c-.827.084-1.14-.182-1.14-.182s.488-.404.782-1.057a.582.582 0 0 1 .48-.344c.59-.05 1.71-.073 1.922.451" fill="#233862"/><path d="M32.775 23.645s.407.393.535.685c.124.282.16.955.062 1.223 0 0 .634-1.233.276-1.832-.38-.635-.873-.076-.873-.076" fill="#233862"/><path d="M33.848 30.685c-.06 3.846-.017 3.042-.438 3.407-.101.088-.386.14-.761.165-1.18.077-3.253-.117-3.332-.335-.271-.755-.08-.989-.306-2.143a9.536 9.536 0 0 0-.087-.401c-.189-.793-.373-1.063.299-2.337.609-1.153 1.242-2.09 1.299-2.056 1.605.954 1.735.153 1.735.153s1.62 1.671 1.59 3.547" fill="#f99746"/><path d="m37.96 40.603-1.235 3.322s-.335.032-.656-.06c-.296-.085-.634-.309-.634-.309s.344-3.567.984-5.615z" fill="#2a4e96"/><path d="M32.258 27.138s1.652.28 1.846.992c.194.712.831 5.031.831 5.031s-.466.455-.854.067c-.388-.388-1.22-4.042-1.22-4.042z" fill="#f99746"/><path d="M32.648 34.257c-1.179.077-3.252-.117-3.33-.335-.272-.755-.08-.989-.307-2.143l.57-1.602s-.095 1.784.431 2.253c.525.47 2.153.906 2.409 1.298.123.189.204.377.227.529" fill="#ed7d2b"/><path d="M31.297 33.506s1.164-.259 1.352-.155c.188.103.646.479.704.61.057.13-.418-.1-.573-.14-.1-.028-.364.064-.494.107-.55.183-.886.089-.886.089z" fill="#ffb27d"/><path d="M30.52 26.984s-1.561.096-2.102.85c-.762 1.062-2.274 5.586-1.408 6.19.974.68 4.435.18 4.435.18s.116-.539-.045-.8c-.16-.26-2.764-.681-2.884-.802-.12-.12 1.503-2.343 1.503-2.704 0-.36.502-2.914.502-2.914" fill="#f99746"/><path d="M32.705 33.674s.244.315.324.353c.08.037.131.028.131.028l-.164-.296zM32.649 33.35l.709.345s-.03.05-.118.045a1.68 1.68 0 0 1-.307-.084z" fill="#ffb27d"/><path d="m38.7 34.162-7.403-.003v.164l7.338.002z" fill="#233862"/><path d="m33.029 34.323 5.606.002 1.688-4.193-5.598-.002z" fill="#233862"/><path d="M37.22 32.228c.043-.148-.043-.267-.19-.267a.382.382 0 0 0-.343.267c-.043.147.043.267.19.267.147 0 .301-.12.343-.267" fill="#fff"/><path d="M75.163 50.139c-.755-.251-1.278.065-1.278.065-2.175.09-2.255 2.319-2 3.148.359 1.165-.91 2.084.497 2.555 1.632.547 3.002-.102 2.909.18 5.162.407 1.59-5.378-.128-5.948" fill="#163560"/><path d="M72.908 60.98s-.207.409-.582.879c-.452.566-2.822-.777-2.618-.879.204-.102 1.396-3.535 1.68-3.966.283-.432 1.25-.655 1.25-.655z" fill="#f99746"/><path d="M80.909 84.13s.654.597.527 1.02c-.128.425-.719.708-.798 1.227-.08.518-.4.801-.687.801h-1.37s-.211-.364.3-.475c.51-.11.703-.72.671-1.285-.032-.566.048-1.32.048-1.32l1.085-.251z" fill="#1f447f"/><path d="M75.37 84.383s.235 2.53-.052 2.672l-3.677-.008s0-.424.591-.519c.59-.094 1.628-.44 1.803-1.21.176-.77 1.335-.935 1.335-.935" fill="#1c3154"/><path d="M78.198 59.273s.055.773 0 1.7c-.036.614-.658 1.437-.746 1.64-.221.511-.47.594-.47.594l-1.93.474-.68.165-2.14-.639s-.975-2.721-.584-4.253.99-2.595.99-2.595 1.454-.327 4.02-.145z" fill="#f99746"/><path d="M78.382 60.994c-.036.615-.842 1.416-.93 1.62-.221.51-.47.593-.47.593l-1.93.474-.35-1s2.821-.74 2.367-3.351z" fill="#ed7d2b"/><path d="M72.368 63.62s-1.06 3.3-1.129 4.423c-.067 1.123 2.027 15.959 2.111 16.476.08.488.686.799.686.799s.278.164.676.052c.551-.156.726-.342.726-.342s.825-10.58.314-14.36c-.51-3.78-.516-7.048-.516-7.048z" fill="#233862"/><path d="M76.859 63.522s1.617 2.17 1.768 3.636c.15 1.467.236 6.618.557 8.048.321 1.43 1.501 4.181 1.501 8.64 0 0-.122.256-.5.392a4.084 4.084 0 0 1-.442.122.693.693 0 0 1-.775-.368c-.798-1.606-3.34-6.786-3.47-7.861-.091-.761-.894-5.798-2.644-8.754-.42-.709.258-3.53.258-3.53z" fill="#2a4e96"/><path d="M72.198 63.11s.426.338 1.271.355c1.01.02 3.512-.258 3.512-.258s.111.31.107.64c0 0-3.056.77-4.827.111 0 0-.228-.43-.063-.847" fill="#233862"/><path d="M73.227 63.444c-.17 0-.308.166-.308.37 0 .202.139.368.308.368.17 0 .308-.166.308-.369 0-.203-.138-.369-.308-.369zm0 .89c-.254 0-.46-.233-.46-.52 0-.288.206-.522.46-.522s.46.234.46.521c0 .288-.206.522-.46.522" fill="#fff"/><path d="m75.435 65.283-4.593.043-2.26-5.31 4.593-.044z" fill="#b5453c"/><path d="m74.834 62.883-.337-.414s-.227-.203-.393-.237c-.165-.035-.514-.236-.548-.18-.034.057.268.462.268.462l.015.002c-.346.26-1.222.031-1.33.137-.13.129.18.408.348.565.167.156.644.417 1.017.301.272-.085.7-.171.7-.171zM68.927 60.95s.289-.329.473-.172c.183.158-.049.932-.224.854-.174-.079-.35-.587-.249-.683" fill="#ffb27d"/><path d="M76.659 56.214s1.314.145 2.258 1.859c.744 1.352 2.016 3.844 1.536 4.549-.21.309-2.23 1.408-6.126.78 0 0 .061-.492.375-.72 0 0 3.279-1.053 3.273-1.262-.01-.397-.442-.74-2.274-2.57-.498-.5.958-2.636.958-2.636" fill="#f99746"/><path d="M75.647 56.283c.045-.06-.013-.254-.086-.614-.065-.325-.176-.83-.173-1.396l-.097.016-1.63.274s.037.436.038.846v.01c.002.357-.096.896.024.966.618.362 1.75.132 1.924-.102" fill="#ffb27d"/><path d="M73.661 54.563s.032.615.034 1.025c.912-.022 1.398-.907 1.596-1.3z" fill="#e8945b"/><path d="M73.563 55.296s2.136-.304 1.926-1.632c-.21-1.327-.076-2.26-1.448-2.123-1.373.139-1.558.687-1.596 1.147-.037.46.557 2.653 1.118 2.608" fill="#ffb27d"/><path d="M73.065 51.663s.831 1.465 1.763 1.552c.932.088 1.282-.214 1.282-.214s-.773-.436-1.068-1.366c0 0-1.655-.783-1.977.028" fill="#163560"/><path d="M73.23 51.767s-.407.23-.535.574a2.17 2.17 0 0 0-.094 1.265s-.608-.989-.21-1.666c.423-.718.839-.173.839-.173" fill="#163560"/><path d="M120.296 87.37H1.876a.149.149 0 0 1-.148-.149v-.085c0-.082.067-.148.148-.148h118.42c.082 0 .149.066.149.148v.085a.149.149 0 0 1-.149.148" fill="#233862"/></svg>