<svg xmlns="http://www.w3.org/2000/svg" width="248.776" height="66.629" viewBox="0 0 186.582 49.972"><path d="M67.016 33.619V1h16.662l-.753 5.272h-8.52v8.943h7.484v5.319h-7.484v13.085zM98.27 33.619l-1.319-7.155h-7.248l-1.271 7.155h-7.343L88.997 1h8.849l7.907 32.619zM90.69 21.146h5.319L93.327 6.413zM127.876 1l-6.967 32.619h-9.508L104.06 1h7.39l4.8 26.782L120.675 1zM137.007 1v32.619h-7.39V1zM162.613 1l-6.967 32.619h-9.508L138.796 1h7.39l4.8 26.782L155.412 1zM178.098 33.619l-1.318-7.155h-7.248l-1.271 7.155h-7.343L168.826 1h8.849l7.907 32.619zm-7.578-12.473h5.319l-2.683-14.733z" fill="#0b3b4b"/><path d="m73.945 40.972-3.1 7h-.73l-3.1-7h.8l2.68 6.08 2.7-6.08zM76.03 40.972h.74v7h-.74zM81.485 41.612h-2.46v-.64h5.66v.64h-2.46v6.36h-.74zM89.9 48.032a3.843 3.843 0 0 1-1.885-.465 3.396 3.396 0 0 1-1.32-1.275 3.53 3.53 0 0 1-.476-1.82c0-.674.159-1.28.476-1.82.316-.54.756-.965 1.32-1.275a3.845 3.845 0 0 1 1.885-.465c.693 0 1.318.153 1.874.46.557.306.996.732 1.315 1.275.32.543.48 1.151.48 1.825 0 .673-.16 1.281-.48 1.825-.32.543-.758.968-1.315 1.275-.556.306-1.181.46-1.874.46zm0-.66c.553 0 1.053-.125 1.5-.375.446-.25.796-.597 1.05-1.04a2.94 2.94 0 0 0 .38-1.485c0-.547-.127-1.042-.38-1.485a2.715 2.715 0 0 0-1.05-1.04 3.017 3.017 0 0 0-1.5-.375c-.554 0-1.056.125-1.506.375a2.74 2.74 0 0 0-1.06 1.04 2.908 2.908 0 0 0-.384 1.485c0 .546.128 1.041.385 1.485.256.443.61.79 1.06 1.04.45.25.951.375 1.505.375zm.72-8.21h.95l-1.62 1.24h-.7zM101.084 47.972l-1.6-2.25c-.18.02-.366.03-.56.03h-1.88v2.22h-.74v-7h2.62c.893 0 1.593.213 2.1.64.507.426.76 1.013.76 1.76 0 .547-.138 1.008-.415 1.385-.276.376-.672.648-1.185.815l1.71 2.4zm-2.18-2.85c.694 0 1.224-.154 1.59-.46.367-.307.55-.737.55-1.29 0-.567-.183-1.002-.55-1.305-.366-.304-.897-.455-1.59-.455h-1.86v3.51zM104.609 40.972h.74v7h-.74zM113.094 46.102h-3.9l-.84 1.87h-.77l3.2-7h.73l3.2 7h-.78zm-.27-.6-1.68-3.76-1.68 3.76zM119.158 39.552h.65l-3.3 9.42h-.65zM126.623 47.332v.64h-4.95v-7h4.8v.64h-4.06v2.49h3.62v.63h-3.62v2.6zM131.367 48.032c-.52 0-1.018-.083-1.495-.25-.476-.167-.845-.387-1.105-.66l.29-.57c.254.253.59.458 1.01.615.42.157.854.235 1.3.235.627 0 1.097-.115 1.41-.345.314-.23.47-.529.47-.895 0-.28-.085-.504-.255-.67a1.719 1.719 0 0 0-.625-.385c-.246-.09-.59-.189-1.03-.295a10.837 10.837 0 0 1-1.26-.385 2.07 2.07 0 0 1-.804-.565c-.224-.254-.335-.597-.335-1.03 0-.353.093-.675.28-.965.186-.29.473-.522.86-.695.386-.174.866-.26 1.44-.26.4 0 .791.055 1.174.165.384.11.715.261.995.455l-.25.59a3.44 3.44 0 0 0-.94-.435 3.508 3.508 0 0 0-.98-.145c-.613 0-1.075.118-1.384.355-.31.236-.466.542-.466.915 0 .28.085.505.256.675.17.17.383.3.64.39.256.09.601.188 1.035.295.513.126.928.251 1.244.375.317.123.586.31.805.56.22.25.33.588.33 1.015 0 .353-.095.675-.285.965-.19.29-.481.52-.875.69-.393.17-.876.255-1.45.255"/><path d="M20.76 46.598 1.12 12.583a.856.856 0 0 1 0-.877.857.857 0 0 1 .76-.438h4.787c.322 0 .599.16.76.438L19.45 32.53a2.142 2.142 0 0 0 1.9 1.097c.804 0 1.495-.4 1.898-1.097l10.588-18.34c1.075-1.859 2.919-2.923 5.066-2.923h8.333c.322 0 .599.16.76.438a.857.857 0 0 1 0 .877L28.357 46.598c-.805 1.394-2.188 2.193-3.799 2.193-1.61 0-2.994-.798-3.799-2.193" fill="#0b3b4b" fill-rule="evenodd"/><path d="m20.534 24.32-2.166-3.754a.858.858 0 0 1 0-.877l9.101-15.764C28.543 2.065 30.387 1 32.534 1H53.67c.215 0 .4.107.506.293a.571.571 0 0 1 0 .585l-2.565 4.441a.857.857 0 0 1-.76.439H35.57c-2.148 0-3.991 1.064-5.065 2.924l-8.45 14.638a.857.857 0 0 1-.76.438.857.857 0 0 1-.76-.438" fill="#1e8bb0" fill-rule="evenodd"/><path d="M15.883 11.268a5.134 5.134 0 1 0 0-10.268 5.134 5.134 0 0 0 0 10.268" fill="#0b3b4b" fill-rule="evenodd"/></svg>